Coordinates
version=1
nRows=12
nColumns=24
inDegrees=yes

Units are S.I. units (second, meters, Newtons, ...)
Angles are in degrees.

endheader
time	pelvis_tilt	pelvis_list	pelvis_rotation	pelvis_tx	pelvis_ty	pelvis_tz	hip_flexion_r	hip_adduction_r	hip_rotation_r	knee_angle_r	ankle_angle_r	subtalar_angle_r	mtp_angle_r	hip_flexion_l	hip_adduction_l	hip_rotation_l	knee_angle_l	ankle_angle_l	subtalar_angle_l	mtp_angle_l	lumbar_extension	lumbar_bending	lumbar_rotation
      0.91233333	     -1.30781044	     -2.33181954	     -2.24523605	     -0.17410096	      0.97858925	      0.30688152	     -9.38197272	      6.07222528	     -2.70688736	    -11.82547573	     14.57786317	     -0.49238968	      0.63237841	     26.66498369	     -0.87671876	     -2.94816712	    -11.12167236	     -0.07490812	     -4.42961547	     -3.47339860	     -2.20303531	      5.91982029	      7.41664620
      0.91650000	     -1.37064092	     -2.25874755	     -2.25965616	     -0.16827188	      0.97801181	      0.30655651	     -9.31053880	      5.94928876	     -2.66579500	    -12.54897648	     14.70358412	     -0.56288931	      0.65808175	     26.55654330	     -0.71485722	     -2.86548425	    -11.08859760	     -0.32732362	     -4.52058536	     -3.32037213	     -2.08479646	      5.83477994	      7.44310410
      0.92066667	     -1.44630440	     -2.18120659	     -2.26617034	     -0.16245712	      0.97745660	      0.30620487	     -9.18619796	      5.81938906	     -2.63673135	    -13.34390409	     14.79218216	     -0.63256545	      0.70540621	     26.47202429	     -0.54174592	     -2.74203501	    -11.13301685	     -0.61683056	     -4.72782225	     -3.09035247	     -1.96303577	      5.75227048	      7.47705988
      0.92483333	     -1.53626984	     -2.08922897	     -2.27616787	     -0.15658949	      0.97694802	      0.30587421	     -9.02602563	      5.67808344	     -2.56798753	    -14.18058284	     14.86984593	     -0.75998651	      0.75263449	     26.38316864	     -0.35998113	     -2.61828347	    -11.19857780	     -0.91048792	     -4.86602071	     -2.91013592	     -1.79952390	      5.64792900	      7.47839059
      0.92900000	     -1.62996406	     -1.99888506	     -2.27232166	     -0.15074848	      0.97647185	      0.30550309	     -8.82242833	      5.53629189	     -2.52454093	    -15.08383701	     14.88659135	     -0.87524428	      0.83890736	     26.31714462	     -0.16955224	     -2.45291357	    -11.34477846	     -1.24444994	     -5.16621617	     -2.63750843	     -1.65255972	      5.54782515	      7.49559910
      0.93316667	     -1.73281079	     -1.89684045	     -2.27306442	     -0.14487061	      0.97604268	      0.30515036	     -8.57926880	      5.38365845	     -2.45525712	    -16.04516456	     14.89118234	     -1.02629561	      0.92561831	     26.24150488	      0.02560940	     -2.28742507	    -11.49639795	     -1.57088011	     -5.38203654	     -2.41700818	     -1.47673192	      5.43427049	      7.48253926
      0.93733333	     -1.81553798	     -1.78027280	     -2.26530138	     -0.13898800	      0.97570491	      0.30476964	     -8.32182990	      5.21092103	     -2.40866298	    -17.06328834	     14.83281969	     -1.17010332	      1.03830230	     26.14375690	      0.24082457	     -2.10979167	    -11.68179878	     -1.92402270	     -5.69119953	     -2.18255306	     -1.32237955	      5.29597398	      7.46949496
      0.94150000	     -1.91633588	     -1.66872224	     -2.24150016	     -0.13311859	      0.97536475	      0.30436277	     -8.00511441	      5.04342645	     -2.38778368	    -18.14908395	     14.71153613	     -1.29919337	      1.22349120	     26.08732348	      0.45614422	     -1.91335018	    -11.93915566	     -2.26837623	     -6.07528512	     -1.86688778	     -1.15994378	      5.16449048	      7.44485255
      0.94566667	     -2.00799339	     -1.52744213	     -2.22715353	     -0.12720550	      0.97511140	      0.30397220	     -7.66493795	      4.84134192	     -2.34810650	    -19.29308484	     14.55410900	     -1.45659130	      1.37956878	     25.99087407	      0.69248386	     -1.73381146	    -12.16227444	     -2.60229275	     -6.34686760	     -1.64905964	     -0.99027465	      5.00049815	      7.40192838
      0.94983333	     -2.07746351	     -1.37357852	     -2.18137267	     -0.12129961	      0.97489766	      0.30349999	     -7.30007488	      4.60569721	     -2.43820939	    -20.50617146	     14.25224675	     -1.48642994	      4.61263163	     25.90056226	      0.95437230	     -1.56365239	    -12.45700600	     -2.96656277	     -6.75993190	      2.00866775	     -0.85740872	      4.81775943	      7.33760623
      0.95400000	     -2.17535446	     -1.24223786	     -2.15630125	     -0.11543279	      0.97473418	      0.30309680	     -6.88058060	      4.41864861	     -2.36958672	    -21.75440384	     13.93286078	     -1.73207065	      4.67124413	     25.83371430	      1.17940616	     -1.38212906	    -12.75975027	     -3.26515489	     -7.12144394	      2.00775303	     -0.69749474	      4.66595488	      7.29611103
      0.95816667	     -2.26067986	     -1.08707636	     -2.11387743	     -0.10956454	      0.97460734	      0.30263980	     -6.41901938	      4.18883628	     -2.39336113	    -23.09472929	     13.56511582	     -1.85293352	      4.78427622	     25.75852797	      1.43595597	     -1.19579606	    -13.08597779	     -3.52436003	     -7.50618021	      2.01535871	     -0.54263327	      4.48153270	      7.22555132
